PathFileType	4	(X/Y/Z)	 s05c0202.trc
DataRate	CameraRate	NumFrames	NumMarkers	Units	OrigDataRate	OrigDataStartFrame	OrigNumFrames
200	200	4	49	mm	200	1	2000
Frame#	Time	racr			lacr			c7			jug			rlel			rdr			llel			ldr			s2			lic			ric			lasi			rasi			rpsi			lpsi			rgt			lgt			rth1			rth2			rth3			rth4			rlfc			rsh1			rsh2			rsh3			rsh4			rlmal			rmmal			rcal			rtoe			rmt5			lth1			lth2			lth4			lth3			llfc			lmfc			lsh1			lsh2			lsh3			lsh4			llmal			lmmal			lcal			ltoe			lmt5			SBIKE			LBIKE			RBIKE			
		X1	Y1	Z1	X2	Y2	Z2	X3	Y3	Z3	X4	Y4	Z4	X5	Y5	Z5	X6	Y6	Z6	X7	Y7	Z7	X8	Y8	Z8	X9	Y9	Z9	X10	Y10	Z10	X11	Y11	Z11	X12	Y12	Z12	X13	Y13	Z13	X14	Y14	Z14	X15	Y15	Z15	X16	Y16	Z16	X17	Y17	Z17	X18	Y18	Z18	X19	Y19	Z19	X20	Y20	Z20	X21	Y21	Z21	X22	Y22	Z22	X23	Y23	Z23	X24	Y24	Z24	X25	Y25	Z25	X26	Y26	Z26	X27	Y27	Z27	X28	Y28	Z28	X29	Y29	Z29	X30	Y30	Z30	X31	Y31	Z31	X32	Y32	Z32	X33	Y33	Z33	X34	Y34	Z34	X35	Y35	Z35	X36	Y36	Z36	X37	Y37	Z37	X38	Y38	Z38	X39	Y39	Z39	X40	Y40	Z40	X41	Y41	Z41	X42	Y42	Z42	X43	Y43	Z43	X44	Y44	Z44	X45	Y45	Z45	X46	Y46	Z46	X47	Y47	Z47	X48	Y48	Z48	X49	Y49	Z49	
1	0.0050	415.399607	1400.461279	-123.473458	427.331852	1410.362497	-414.964764	417.372672	1473.852601	-270.875068	389.651208	1318.226086	-271.039545	501.662754	1159.747498	-20.021446	684.723678	968.840239	-50.400339	477.962896	1151.135998	-527.899037	761.514800	1029.947784	-451.268575	-95.696350	1160.155360	-265.783143	51.691105	1171.863397	-407.658849	53.900865	1194.165190	-128.841985	102.324836	1122.617425	-373.311433	94.320996	1132.284157	-156.045602	-65.163277	1205.661960	-225.755093	-60.871573	1207.139788	-313.829210	10.780775	1065.851447	-91.367764	-18.730871	1066.615746	-434.091195	109.346458	1012.499673	-75.580605	197.446232	998.847404	-70.485372	265.326763	942.492772	-69.002346	211.842516	1030.913492	-82.948608	402.094176	865.676344	-90.841828	335.856122	775.399489	-72.825137	322.761991	689.095545	-86.143258	269.560711	621.111342	-93.990980	350.434241	680.132191	-111.324901	220.549798	496.715508	-110.853667	234.382076	530.950820	-186.827499	149.821477	463.314791	-158.159420	444.618974	449.802509	-145.131932	343.029431	422.526935	-82.375733	57.026433	946.359008	-455.524686	125.037584	894.851551	-459.521034	155.191660	914.086110	-447.284858	157.739445	809.733362	-463.516334	226.501624	675.439194	-437.958300	219.172006	665.294885	-328.457548	134.317754	585.031812	-458.005206	100.483785	504.817585	-444.923362	28.998139	452.547014	-441.717711	126.423589	488.180716	-422.246339	-40.958369	351.168519	-429.654833	-7.528983	372.117097	-354.797008	-111.822488	323.775189	-386.372585	168.120808	235.148423	-396.385412	56.789564	236.135674	-458.487677	-168.394117	902.570061	-271.276296	-43.579240	85.032181	-474.835522	-51.607389	79.766569	-77.291210	
2	0.0100	415.588024	1400.459217	-123.550213	427.481810	1410.239002	-414.998925	417.557700	1473.759390	-270.942357	389.766520	1318.159130	-271.054814	501.747092	1159.778695	-20.093742	684.756462	968.827778	-50.373159	477.910619	1151.051284	-528.009992	761.679798	1030.130311	-451.292808	-95.755229	1160.227440	-265.737788	51.694398	1171.827522	-407.609176	53.986689	1194.129157	-128.807171	102.327247	1122.575414	-373.260540	94.366089	1132.285368	-156.014453	-65.060704	1205.784064	-225.891765	-60.816294	1207.176898	-313.765665	10.611358	1065.837547	-91.434623	-18.721257	1066.663710	-434.068699	109.336224	1012.406462	-75.518012	197.404018	998.806824	-70.396299	265.284051	942.420833	-68.943855	211.823909	1030.884678	-82.819758	402.070108	865.681150	-90.784505	335.870947	775.362738	-72.785449	322.785915	689.068653	-86.120480	269.571833	621.100864	-93.975828	350.435423	680.121452	-111.281523	220.605098	496.680867	-110.850568	234.441435	530.936591	-186.836248	149.902838	463.250237	-158.187449	444.680767	449.739496	-145.138122	343.054338	422.482343	-82.366218	57.047658	946.400015	-455.508394	125.061371	894.885726	-459.491188	155.219995	914.123310	-447.235422	157.744693	809.795458	-463.474639	226.510753	675.468094	-437.910868	219.210942	665.344291	-328.429093	134.347561	585.098425	-457.973262	100.492929	504.898065	-444.928389	29.009885	452.628495	-441.711656	126.446813	488.245469	-422.215704	-40.964737	351.244670	-429.655325	-7.570430	372.172694	-354.783026	-111.826492	323.866265	-386.377926	168.092110	235.175054	-396.386022	56.767449	236.199765	-458.478432	-168.158145	902.571482	-271.166058	-43.620622	85.084530	-474.872275	-51.608300	79.776786	-77.274773	
3	0.0150	415.742698	1400.488459	-123.640463	427.618603	1410.123944	-415.092369	417.742869	1473.649592	-271.046333	389.883501	1318.117160	-271.070425	501.825130	1159.807019	-20.148319	684.772503	968.818905	-50.311991	477.835271	1150.954171	-528.150148	761.734013	1030.114849	-451.298151	-95.747029	1160.290727	-265.668164	51.713566	1171.812844	-407.561767	54.084594	1194.048197	-128.741703	102.321612	1122.546003	-373.198006	94.377272	1132.135928	-155.926765	-64.989479	1205.813299	-225.823285	-60.770498	1207.237549	-313.690931	10.583355	1065.806387	-91.402449	-18.727284	1066.709334	-434.053458	109.303111	1012.349123	-75.448324	197.357769	998.763422	-70.316898	265.273145	942.374241	-68.896967	211.781618	1030.838437	-82.706447	402.095448	865.719686	-90.727846	335.870597	775.355925	-72.738840	322.794934	689.058899	-86.071949	269.614575	621.057462	-93.945627	350.451453	680.121920	-111.261424	220.671625	496.652811	-110.842079	234.483626	530.920798	-186.829006	149.972126	463.234779	-158.192178	444.721723	449.673421	-145.133972	343.097895	422.433012	-82.367147	57.066231	946.424922	-455.486529	125.074147	894.915260	-459.451789	155.234930	914.178266	-447.196171	157.787291	809.855141	-463.460426	226.557488	675.539269	-437.891932	219.224634	665.393583	-328.387714	134.375106	585.158409	-457.955093	100.501875	504.967963	-444.906316	29.016760	452.705482	-441.698665	126.461874	488.322830	-422.208257	-40.959300	351.302111	-429.640632	-7.558279	372.213896	-354.786310	-111.843787	323.947476	-386.355205	168.071703	235.210221	-396.382672	56.742120	236.242011	-458.469767	-164.285958	903.464594	-267.938100	-43.611831	85.069269	-474.883200	-51.627800	79.765278	-77.283351	
4	0.0200	415.941336	1400.480743	-123.659770	427.734598	1409.984784	-415.112207	417.921895	1473.549658	-271.163750	390.033976	1318.050622	-271.104139	501.930805	1159.837119	-20.188427	684.858838	968.790960	-50.201947	477.765090	1150.859070	-528.277216	763.309444	1032.322513	-451.258869	-95.747666	1160.350613	-265.610276	51.733475	1171.797707	-407.498548	54.129743	1193.592435	-129.812662	102.156963	1123.023184	-373.193304	94.246035	1132.027880	-156.047713	-64.661212	1206.988954	-225.851887	-60.722157	1207.284707	-313.612423	10.862536	1065.557525	-91.311353	-18.724790	1066.756549	-434.026948	109.182186	1012.257879	-75.354539	197.339495	998.705631	-70.233673	265.250539	942.331662	-68.851756	211.775386	1030.799013	-82.594666	402.097361	865.724580	-90.684758	335.865686	775.336393	-72.697924	321.900503	688.179580	-86.679781	269.702971	620.927984	-93.912370	350.496119	680.115108	-111.222874	220.406495	497.131448	-110.535472	234.634290	530.842563	-186.816952	150.481932	462.869006	-158.519251	444.763272	449.595381	-145.132594	343.203681	422.347813	-82.408997	57.076092	946.459107	-455.464712	125.230013	894.437202	-459.126978	155.059632	914.124879	-446.925479	158.128992	810.082981	-463.033132	226.729142	675.466061	-437.371668	219.238558	665.437331	-328.368715	134.380877	585.251018	-457.938158	100.511112	505.076858	-444.926586	28.990040	452.787385	-441.702137	126.266323	488.774017	-421.795443	-41.023605	351.463063	-429.691872	-7.573136	372.278436	-354.766029	-111.855809	324.028406	-386.361340	168.048530	235.246812	-396.395758	56.719858	236.298719	-458.487877	-168.125024	902.571042	-271.179743	-43.623504	85.082340	-474.875422	-51.614167	79.772894	-77.284573	
